<svg width="251" height="55" viewBox="0 0 251 55" fill="none" xmlns="http://www.w3.org/2000/svg">
<g clip-path="url(#clip0_5081_284091)">
<path d="M8.32634 29.3779C8.32634 30.1536 8.77799 30.8604 9.48132 31.1845L22.6895 37.2835L22.6447 43.2446L11.1466 37.942C9.82954 37.3352 8.32289 38.2971 8.32289 39.7486C8.32289 40.5244 8.77454 41.2311 9.47787 41.5552L22.6171 47.6163L22.5654 54.4048L3.08582 45.689C1.19992 44.834 -0.0136745 42.9481 0.000116314 40.8726L0.148368 19.5002C0.169054 16.7352 3.03755 14.9113 5.55093 16.0732L22.786 24.034L22.724 32.9084L11.15 27.5713C9.83299 26.9645 8.32979 27.9264 8.32979 29.3779H8.32634Z" fill="#FF9C1A"/>
<path d="M43.0212 29.3778C43.0212 30.1536 42.5695 30.8604 41.8662 31.1844L28.658 37.2834L28.7028 43.2445L40.2009 37.942C41.518 37.3352 43.0246 38.2971 43.0246 39.7486C43.0246 40.5243 42.573 41.2311 41.8696 41.5552L28.7304 47.6162L28.7821 54.4048L48.2617 45.689C50.1545 44.8408 51.3681 42.9549 51.3543 40.8794L51.206 19.5071C51.1853 16.742 48.3168 14.9182 45.8035 16.08L28.5684 24.0408L28.6304 32.9152L40.2044 27.5781C41.5214 26.9713 43.0246 27.9333 43.0246 29.3847L43.0212 29.3778Z" fill="#33CC33"/>
<path d="M43.6659 8.36415L25.6723 16.7283L7.56836 8.36415L25.562 0L43.6659 8.36415Z" fill="#043CF6"/>
<path d="M93.5526 28.4417C95.5247 24.9906 100.251 16.3196 102.099 12.9477C102.468 12.3306 102.717 11.5514 103.003 10.8101C103.085 10.6446 103.168 10.524 103.496 10.524C106.906 10.524 110.36 10.3585 112.25 10.1137C112.456 10.0723 112.536 10.1551 112.415 10.3999C111.922 11.2204 111.429 11.5514 110.977 11.7548C110.195 12.0823 109.167 12.3306 108.14 12.5754C107.564 12.6581 107.112 12.7408 106.906 13.358C106.578 14.3854 106.495 18.0848 106.619 22.1117C106.906 30.2483 107.071 32.3445 107.402 33.3719C107.568 33.8236 107.771 33.9477 108.181 33.9891C109.578 34.1132 111.512 34.358 112.005 34.5649C112.291 34.6062 112.374 34.689 112.129 34.9751C111.553 35.5509 110.484 36.2887 110.239 36.2887C109.088 36.206 107.978 36.1232 106.254 36.1232C103.499 36.1232 101.075 36.2887 99.6378 36.5749C99.3895 36.6576 99.3102 36.4921 99.4309 36.3301C99.7171 35.9612 100.007 35.5475 100.5 35.1785C100.827 34.9303 101.362 34.6442 102.103 34.3994C102.555 34.2339 102.72 34.0718 102.761 33.5374C102.803 31.1551 102.761 21.3325 102.844 15.7438C102.844 15.4956 102.637 15.4576 102.434 15.8265C100.093 19.9362 95.5281 28.8141 94.4214 31.5653C93.4767 33.9063 92.3666 34.9338 91.4219 36.4163C91.0116 37.0748 90.6427 37.0334 90.6806 36.3749C90.6806 35.5923 90.2704 33.9512 89.6118 32.2239C87.2708 26.018 84.4334 20.3465 82.0924 15.8265C82.0096 15.6197 81.6821 15.5818 81.6821 15.8265C81.3959 21.8669 80.8202 28.8141 80.4892 33.0065C80.4478 33.7064 80.8167 33.9098 81.1063 33.9098C82.1751 34.0753 83.9817 34.3201 84.6816 34.5269C85.0091 34.6097 85.1333 34.7338 84.8471 35.02C84.5609 35.3475 83.2439 36.3749 82.8336 36.3335C81.8476 36.2508 81.0236 36.1267 79.0929 36.1267C76.7105 36.1267 73.9144 36.4128 72.8042 36.5783C72.6388 36.6197 72.5181 36.5783 72.6801 36.2922C72.887 35.8819 73.6662 35.182 73.9558 34.9786C74.3661 34.7338 75.2694 34.4856 76.7519 34.1167C77.2035 34.0339 77.4518 33.8305 77.6552 33.3375C78.5585 30.9965 79.8755 19.488 79.9169 15.0094C79.9582 13.6959 79.7928 12.6271 78.9308 12.503C77.0415 12.2961 75.1901 12.134 74.2868 11.8858C73.9179 11.7617 73.9592 11.5997 74.204 11.4755C75.7658 10.5722 76.052 10.2826 76.3416 10.324C78.5619 10.6515 81.8476 10.4895 83.1646 10.1999C83.5335 10.1171 83.6163 10.2413 83.6576 10.486C83.8645 11.3893 84.8092 13.1166 87.0674 17.5125C88.9154 21.005 91.6287 25.9387 92.9044 28.321C93.1906 28.7313 93.3974 28.7313 93.5629 28.4452L93.5526 28.4417Z" fill="black" fill-opacity="0.8"/>
<path d="M122.155 37.1126C122.279 36.8264 122.279 36.661 122.031 36.3334C121.783 35.9645 121.538 35.3887 121.414 34.9785C119.769 29.5138 117.18 23.963 116.277 22.6495C115.825 21.9082 115.291 21.7048 112.908 21.2118C112.743 21.1704 112.66 21.0463 112.867 20.8842C113.194 20.5981 113.608 20.143 113.936 20.1016C116.156 19.8154 118.497 19.4017 119.731 18.6639C119.897 18.5812 119.938 18.788 119.897 19.0742C119.855 19.7741 119.69 20.8842 119.938 21.4152C120.717 23.1425 123.389 29.7173 124.172 31.9755C124.296 32.2617 124.582 32.0996 124.665 31.8514C126.02 28.6864 127.171 24.494 127.378 22.6046C127.461 22.1116 127.42 21.7427 126.968 21.4945C126.599 21.2462 125.858 21.2083 124.789 21.0015C124.582 20.9601 124.503 20.836 124.665 20.6739C125.323 20.0568 125.978 19.4396 126.103 19.4396C127.992 19.3983 130.788 19.4396 133.295 18.988C133.46 18.9466 133.501 19.1535 133.336 19.3569C133.212 19.6431 132.636 20.3843 132.433 20.4671C132.064 20.6325 131.529 20.836 131.078 21.0015C130.626 21.2497 130.419 21.4945 130.05 22.2771C128.981 24.7422 126.682 31.7307 124.337 36.8264C123.351 38.9227 121.379 42.7841 119.528 44.9217C117.925 46.7283 116.732 47.1006 115.787 47.1006C115.046 47.1006 114.553 46.9351 113.898 46.2387C113.363 45.6629 112.87 44.6355 112.87 44.0184C112.87 43.7701 112.994 43.5667 113.198 43.6495C113.608 43.7736 114.473 43.8977 115.129 43.8977C117.925 43.8977 120.676 40.281 122.155 37.116V37.1126Z" fill="black" fill-opacity="0.8"/>
<path d="M137.321 12.7822C137.197 12.5339 136.994 12.3719 136.58 12.3305C135.801 12.2478 134.401 12.0444 133.415 11.7961C132.798 11.672 132.674 11.51 133.005 11.2617C133.622 10.8515 135.101 10.0275 135.346 10.0688C136.949 10.3964 140.769 10.5205 146.772 10.5205C150.14 10.5205 151.95 10.1516 153.06 9.49306C153.346 9.32757 153.471 9.49306 153.346 9.77922C152.853 11.2169 152.484 13.4786 152.526 16.0265C152.567 16.3126 152.443 16.3954 152.198 16.3126C151.788 16.1471 151.254 15.6955 151.088 15.368C150.678 14.4647 150.388 13.4372 150.185 12.8201C150.061 12.4512 149.978 12.0409 149.692 12.0788C148.416 12.365 145.91 12.5719 142.665 12.5719C142.09 12.5719 142.007 12.7374 142.007 13.2304C142.131 15.8196 142.09 18.5743 142.09 21.0808C142.09 21.5325 142.417 21.6566 142.583 21.698C143.324 22.0255 145.748 22.1496 147.637 22.1496C148.951 22.1496 149.857 22.0669 150.185 21.6566C150.43 21.3291 150.512 20.9567 150.885 20.6705C151.092 20.4637 151.871 20.0948 152.322 19.9293C152.691 19.7638 152.857 19.7224 152.691 20.2568C151.991 22.0255 151.705 24.532 151.705 27.1212C151.705 27.4901 151.419 27.5729 151.13 27.2867C150.388 26.5868 150.185 25.7663 149.895 24.6147C149.813 24.2044 149.688 23.9148 149.278 23.9976C147.758 24.2458 144.265 24.2837 142.414 24.3251C142.128 24.3251 142.045 24.532 142.045 25.2698C142.045 27.9418 141.962 30.4896 141.879 33.1202C141.838 33.6132 142.003 34.0649 142.662 34.1476C145.21 34.4338 147.923 34.4338 149.568 34.189C150.678 34.0649 151.623 33.8201 152.526 33.1616C153.429 32.5031 154.295 31.2722 155.032 29.5863C155.198 29.3002 155.319 29.1347 155.525 29.4208C155.774 29.707 155.936 30.3241 155.894 30.6965C155.687 32.0101 154.784 33.5305 154.126 34.4786C153.305 35.506 152.278 36.4093 151.043 36.4093C147.427 36.4093 143.358 36.1232 139.042 36.1232C136.659 36.1232 134.15 36.2473 133.164 36.4093C132.877 36.4507 132.753 36.368 132.998 36.0404C133.205 35.7129 133.943 35.0544 134.477 34.8475C135.011 34.6407 135.587 34.4786 136.859 34.2304C137.228 34.189 137.435 33.9856 137.601 33.696C137.928 32.9547 138.094 29.8311 138.094 25.2698C138.094 19.8845 137.928 14.213 137.315 12.7753L137.321 12.7822Z" fill="black" fill-opacity="0.8"/>
<path d="M170.77 18.9055C171.139 18.9882 171.305 18.7814 171.305 18.3711C171.305 16.2335 171.346 14.0959 171.263 11.9997C171.222 10.9723 171.263 10.8068 170.688 10.6862C170.236 10.562 169.412 10.4793 167.974 10.3586C167.892 10.3586 167.767 10.2345 167.892 10.1104C168.219 9.74148 168.591 9.24846 168.795 9.20709C170.274 9.0416 171.712 8.83818 173.07 8.38653C173.891 8.10037 174.508 7.85214 174.918 7.5246C175.411 7.1557 175.576 7.27637 175.494 7.69009C174.918 10.3207 174.752 15.1303 174.752 21.9912C174.752 28.8521 174.835 31.6482 175.163 33.0859C175.245 33.5376 175.449 33.6617 175.821 33.7444C176.19 33.8686 177.628 33.9099 178.41 33.8272C178.821 33.7858 178.862 34.034 178.41 34.5684C176.89 36.3785 173.766 36.9094 172.411 36.9094C172.043 36.9094 171.794 36.7439 171.632 36.5405C171.467 36.3337 171.346 35.8406 171.305 34.5684C171.305 33.7893 171.139 33.5824 170.77 33.8272C169.457 34.6891 167.523 35.7579 166.743 36.0475C165.882 36.375 165.223 36.5819 164.32 36.5819C161.979 36.5819 158.279 34.5684 158.279 29.4314C158.279 26.5939 159.348 24.2943 160.951 22.7738C161.813 21.9946 163.747 20.6362 165.226 19.9398C166.581 19.3227 168.267 18.8296 169.502 18.8296C170.16 18.8296 170.488 18.871 170.774 18.9124L170.77 18.9055ZM164.237 21.9878C162.882 23.0979 161.975 24.9045 161.975 27.249C161.975 31.893 164.933 33.9065 167.112 33.9065C168.264 33.9065 169.743 33.3721 170.77 32.386C171.098 32.1378 171.263 31.8516 171.263 31.4414C171.305 28.7694 171.305 25.9768 171.305 22.9359C171.305 22.4842 171.222 22.0739 170.977 21.8257C170.198 21.1672 169.209 20.881 167.771 20.881C166.457 20.881 165.182 21.2499 164.237 21.9912V21.9878Z" fill="black" fill-opacity="0.8"/>
<path d="M187.086 33.2891C187.703 33.7408 188.523 33.8649 189.347 33.8649C190.54 33.8649 192.019 33.1237 192.84 32.0962C193.292 31.5205 193.416 31.0274 193.416 30.4103C193.457 26.0145 193.54 23.2184 193.498 22.684C193.498 22.3978 193.374 22.2737 193.005 22.0668C192.226 21.6566 191.361 21.3256 190.089 20.9153C190.047 20.9153 189.965 20.8326 190.13 20.6671C190.337 20.4602 190.871 19.9672 191.075 19.9672C193.623 19.8844 195.967 19.3087 196.994 18.9811C197.322 18.8984 197.446 18.9398 197.405 19.3087C197.119 20.9119 196.953 23.7459 196.953 27.7349C196.953 30.9413 196.994 32.2135 197.239 32.9961C197.322 33.4477 197.567 33.5719 197.939 33.696C198.556 33.9028 199.666 33.9408 200.404 33.9028C200.611 33.9028 200.652 34.027 200.57 34.1511C200.487 34.3579 200.363 34.6027 200.077 34.8096C198.804 35.837 195.843 36.9058 194.612 36.9058C194.326 36.9058 193.995 36.5783 193.954 36.2887C193.705 35.4267 193.667 34.4821 193.585 33.6581C193.585 33.4512 193.298 33.4512 193.216 33.4926C192.064 34.4786 190.258 35.5474 189.392 35.9577C188.692 36.2852 187.748 36.6162 186.927 36.6162C183.145 36.6162 181.955 34.1097 181.955 30.3689C181.955 27.1626 182.162 24.0803 182.242 23.0115C182.242 22.8047 182.242 22.5599 181.955 22.3116C181.462 21.86 180.27 21.367 179.366 21.036C179.284 20.9946 179.159 20.9119 179.242 20.8291C179.49 20.543 179.859 20.1706 180.021 20.1706C182.362 19.8431 184.541 19.3087 185.979 18.7329C186.103 18.7329 186.227 18.8984 186.186 19.1018C185.734 20.6636 185.527 23.046 185.527 28.8002C185.527 31.224 185.979 32.541 187.089 33.2788L187.086 33.2891Z" fill="black" fill-opacity="0.8"/>
<path d="M215.688 25.5631C215.688 29.0143 215.523 31.5621 215.361 33.2067C215.319 33.5342 215.444 33.6583 215.688 33.8238C216.388 34.2341 217.743 34.2755 218.936 34.3169C219.184 34.3169 218.729 34.934 218.484 35.1374C216.923 36.2889 214.089 36.8647 212.772 36.8647C212.32 36.8647 211.951 36.6199 211.992 36.2476C212.034 35.8787 212.075 34.6444 212.117 34.11C212.117 33.8618 211.951 33.6997 211.748 33.7825C210.679 34.3996 209.651 35.1374 208.338 35.8373C207.31 36.4131 206.693 36.6578 205.831 36.6578C204.063 36.6578 202.008 35.1374 202.008 32.5896C202.008 31.2346 203.035 30.0003 204.228 29.3004C206.038 28.2316 209.531 26.9594 211.586 26.5871C211.996 26.463 212.161 26.3009 212.161 25.9286C212.12 23.2152 211.093 21.1604 208.217 21.1604C207.355 21.1604 206.49 21.5707 205.997 21.9809C205.256 22.6808 204.845 24.0772 204.6 25.3907C204.518 25.801 204.394 26.0492 203.942 25.7596C203.163 25.2666 202.628 24.2806 202.628 23.3773C202.628 23.0084 202.835 22.7188 203.287 22.3912C204.6 21.3638 206.617 20.2123 207.972 19.5951C209 19.1021 209.986 18.8125 210.603 18.8125C213.971 18.8125 215.699 22.0189 215.699 25.5528L215.688 25.5631ZM211.786 32.3861C212.034 32.1793 212.154 32.0172 212.196 31.6449C212.237 30.945 212.279 29.8383 212.279 28.9729C212.279 28.5626 212.154 28.2316 211.496 28.2316C210.262 28.2316 207.838 28.766 206.852 29.4246C206.073 29.9176 205.783 30.2037 205.783 31.0277C205.783 32.5068 206.769 33.9859 208.331 33.9859C209.441 33.9859 211.086 32.9998 211.782 32.3827L211.786 32.3861Z" fill="black" fill-opacity="0.8"/>
<path d="M233.481 19.0709C233.85 19.0296 233.85 19.2778 233.522 19.6053C232.905 20.3845 231.633 21.1258 230.85 21.3326C230.068 21.5395 228.547 21.7843 226.575 21.7843C226.41 21.7843 226.123 21.9912 226.123 22.1532C226.041 23.2634 225.958 25.563 226.082 29.059C226.082 31.1552 226.368 32.5515 227.192 33.2928C227.768 33.8272 228.589 34.0754 229.454 34.0754C230.481 34.0754 231.674 33.6237 232.864 33.0066C232.988 32.9238 233.071 32.9652 233.071 33.1721C233.071 33.3789 232.864 33.9926 232.702 34.2409C231.674 35.4338 229.578 36.6646 226.947 36.6646C225.551 36.6646 224.482 36.213 223.824 35.5131C223.083 34.7718 222.51 33.3341 222.469 30.8276C222.427 27.5799 222.634 24.1701 222.676 22.1566C222.676 21.9498 222.51 21.7464 222.307 21.705C221.279 21.6223 220.169 21.4981 219.635 21.3361C219.225 21.212 219.183 21.0879 219.387 20.8431C219.756 20.3914 221.114 19.4054 221.359 19.4054C221.769 19.4467 222.1 19.4881 222.469 19.4467C222.717 19.4467 222.879 19.1985 222.879 18.9951C222.962 17.5988 223.086 16.9816 223.455 16.2404C224.155 14.8027 225.837 13.2822 226.413 12.9926C226.699 12.8271 226.906 12.8271 226.782 13.1995C226.575 14.351 226.289 16.4472 226.289 19.1571C226.289 19.4054 226.454 19.526 226.575 19.526C227.437 19.6088 228.754 19.5674 230.233 19.526C231.302 19.4433 232.329 19.3192 233.481 19.0744V19.0709Z" fill="black" fill-opacity="0.8"/>
<path d="M248.851 24.1253C248.851 24.5356 249.058 24.6597 249.261 24.6183C249.547 24.577 249.878 24.5356 250.164 24.4942C250.371 24.4942 250.451 24.4942 250.451 24.7011C250.451 24.9493 250.082 25.401 249.671 25.6457C248.809 26.1801 246.834 26.5077 245.355 26.7559C243.3 27.0834 240.793 27.2489 238.942 27.3317C238.532 27.3317 238.408 27.7833 238.408 28.0316C238.449 31.8551 240.504 33.9892 243.914 33.9892C246.093 33.9892 248.392 32.6343 249.668 31.4413C249.995 31.1552 250.202 31.1552 250.202 31.5241C250.202 31.893 250.037 32.4274 249.792 32.7997C248.765 34.1961 246.134 35.5131 244.245 36.1682C243.3 36.5371 241.904 36.6612 240.956 36.6612C237.422 36.6612 234.791 33.8651 234.791 29.0176C234.791 26.1008 236.067 23.6737 237.053 22.4842C237.997 21.4154 239.314 20.4294 240.793 19.6881C241.904 19.1123 243.134 18.8262 244.041 18.8262C247.741 18.8262 248.851 21.8257 248.851 24.1288V24.1253ZM238.577 24.7838C238.494 25.2355 238.783 25.4837 239.728 25.4837C242.069 25.4837 243.796 25.401 244.741 25.2768C245.276 25.1941 245.482 24.9907 245.482 24.6183C245.482 23.3427 245.031 20.7534 242.114 20.7534C240.304 20.7534 238.825 22.4807 238.58 24.7804L238.577 24.7838Z" fill="black" fill-opacity="0.8"/>
</g>
<defs>
<clipPath id="clip0_5081_284091">
<rect width="250.451" height="54.4049" fill="white"/>
</clipPath>
</defs>
</svg>
