<svg width="497" height="400" viewBox="0 0 497 400" fill="none" xmlns="http://www.w3.org/2000/svg">
<g filter="url(#filter0_dd_5081_283938)">
<path d="M419.5 159.742L437.071 164.901L449.063 178.741L451.669 196.867L444.062 213.525L428.656 223.425H410.344L394.938 213.525L387.331 196.867L389.937 178.741L401.929 164.901L419.5 159.742Z" fill="url(#paint0_linear_5081_283938)"/>
</g>
<path fill-rule="evenodd" clip-rule="evenodd" d="M415.215 183.546C415.215 182.652 415.843 181.928 416.616 181.928C415.843 181.928 415.215 181.206 415.215 180.312C415.215 180.76 415.059 181.162 414.806 181.454C414.553 181.747 414.202 181.928 413.816 181.928C414.202 181.928 414.553 182.108 414.806 182.401C415.059 182.696 415.215 183.101 415.215 183.546V183.546ZM422.898 185.784C421.297 185.784 419.998 184.29 419.998 182.439C419.998 183.368 419.675 184.199 419.151 184.805C418.627 185.41 417.902 185.784 417.104 185.784C417.902 185.784 418.627 186.157 419.151 186.763C419.675 187.374 419.998 188.211 419.998 189.134C419.998 187.283 421.296 185.784 422.898 185.784ZM426.185 181.928C425.411 181.928 424.784 182.652 424.784 183.546V183.546C424.784 183.101 424.628 182.696 424.374 182.401C424.121 182.108 423.771 181.928 423.385 181.928C423.771 181.928 424.121 181.747 424.374 181.454C424.627 181.162 424.784 180.76 424.784 180.312C424.784 181.206 425.411 181.928 426.185 181.928ZM410.312 188.052C409.881 187.918 409.461 188.295 409.461 188.81V189.018C411.73 189.43 415.472 190.275 418.315 191.683C416.001 189.95 412.041 188.594 410.312 188.052L410.312 188.052ZM430.54 188.809V189.017L430.539 189.017C428.267 189.433 424.536 190.273 421.689 191.677C424.003 189.944 427.96 188.592 429.689 188.051C430.12 187.917 430.54 188.294 430.54 188.809ZM408.437 189.711C408.062 189.65 407.729 189.988 407.729 190.425V190.473L417.876 192.41C414.617 190.841 410.155 189.997 408.437 189.711L408.437 189.711ZM432.272 190.425V190.473L422.117 192.414C425.376 190.841 429.846 189.997 431.564 189.711C431.938 189.65 432.272 189.988 432.272 190.425ZM405.008 192.242L406.552 206.533C406.657 207.505 407.313 208.275 408.153 208.412L419.485 210.266V193.595L406.093 191.037C405.473 190.919 404.93 191.522 405.007 192.242L405.008 192.242ZM420.235 193.649L433.908 191.037L433.908 191.037C434.527 190.919 435.071 191.523 434.993 192.242L433.448 206.533C433.343 207.505 432.687 208.275 431.847 208.412L420.235 210.312V193.649Z" fill="url(#paint1_linear_5081_283938)"/>
<g filter="url(#filter1_dd_5081_283938)">
<path d="M366.5 72.6284C369.594 70.8421 373.406 70.8421 376.5 72.6285L394.646 83.1049C397.74 84.8913 399.646 88.1925 399.646 91.7652V112.718C399.646 116.291 397.74 119.592 394.646 121.378L376.5 131.855C373.406 133.641 369.594 133.641 366.5 131.855L348.354 121.378C345.26 119.592 343.354 116.291 343.354 112.718V91.7652C343.354 88.1925 345.26 84.8913 348.354 83.1049L366.5 72.6284Z" fill="url(#paint2_linear_5081_283938)"/>
</g>
<path d="M381.945 91.2081C381.945 94.313 379.571 98.0701 376.622 98.0701C373.667 98.0701 371.293 94.313 371.293 91.2081C371.293 88.1945 373.68 85.7417 376.622 85.7417C379.557 85.7417 381.945 88.1943 381.945 91.2081H381.945Z" fill="url(#paint3_linear_5081_283938)"/>
<path d="M385.41 106.641V107.11C384.104 107.343 385.495 106.819 380.511 109.4L378.052 109.772C378.143 109.472 378.176 109.159 378.15 108.839C378.024 107.27 376.884 106.788 375.906 106.282C374.732 105.662 372.292 104.371 371.829 103.849C371.003 102.934 369.852 102.396 368.939 102.29C370.312 100.307 372.537 99.0283 375.098 99.0283H377.883C381.972 99.0285 385.351 102.44 385.41 106.641L385.41 106.641Z" fill="url(#paint4_linear_5081_283938)"/>
<path d="M386.25 108.983C386.067 108.591 385.663 108.369 385.252 108.428C385.082 108.454 385.076 108.454 384.117 108.97C383.51 109.296 382.564 109.804 381.012 110.607C380.953 110.646 380.882 110.665 380.81 110.679L376.948 111.259C374.978 112.538 373.389 110.482 369.297 108.617C368.971 108.467 368.828 108.082 368.978 107.756C369.128 107.423 369.512 107.28 369.839 107.43C373.887 109.291 375.159 110.934 376.322 110.111C377.118 109.511 376.972 108.32 376.172 107.9C374.731 107.114 371.623 105.577 370.856 104.723C370.452 104.279 369.943 103.934 369.369 103.731C369.363 103.725 369.356 103.725 369.349 103.725C368.391 103.386 367.745 103.594 366.675 103.947C365.794 104.24 364.646 104.619 362.957 104.762L362.97 111.455C365.834 111.546 367.797 113.112 369.284 114.299C370.367 115.166 371.215 115.851 371.991 115.727L380.177 114.495C380.855 114.39 381.494 114.097 382.01 113.64L386.008 110.183C386.348 109.889 386.452 109.394 386.25 108.983L386.25 108.983Z" fill="url(#paint5_linear_5081_283938)"/>
<path d="M361.655 103.356C361.655 102.885 361.273 102.504 360.802 102.504L357.852 102.507C357.381 102.507 357 102.889 357 103.36L357.008 113.274C357.009 113.745 357.391 114.126 357.862 114.126L360.812 114.123C361.283 114.123 361.664 113.741 361.664 113.27L361.655 103.356Z" fill="url(#paint6_linear_5081_283938)"/>
<g filter="url(#filter2_dd_5081_283938)">
<path d="M220.179 42.7417C227.877 29.4084 231.726 22.7417 237.5 22.7417C243.274 22.7417 247.123 29.4084 254.821 42.7417L258.718 49.4917C266.416 62.825 270.265 69.4917 267.378 74.4917C264.491 79.4917 256.793 79.4917 241.397 79.4917L233.603 79.4917C218.207 79.4917 210.509 79.4917 207.622 74.4917C204.735 69.4917 208.584 62.825 216.282 49.4917L220.179 42.7417Z" fill="#223550"/>
</g>
<path d="M237.47 49.0288C237.471 49.3912 237.584 49.7442 237.794 50.0396C238.004 50.3351 238.3 50.5581 238.642 50.6781V53.7141H236.885V60.7419H238.056V63.0845C238.056 63.2398 238.118 63.3888 238.228 63.4986C238.337 63.6084 238.486 63.6701 238.642 63.6701H240.399V64.3635C239.873 64.5491 239.467 64.9729 239.304 65.5055C239.141 66.0383 239.24 66.6167 239.572 67.0648C239.903 67.5126 240.427 67.7767 240.984 67.7767C241.541 67.7767 242.065 67.5127 242.397 67.0648C242.728 66.6166 242.827 66.0383 242.664 65.5055C242.501 64.9729 242.095 64.5491 241.57 64.3635V63.0845C241.57 62.9292 241.508 62.7801 241.398 62.6703C241.289 62.5605 241.14 62.4988 240.984 62.4988H239.227V60.7419H241.57V59.5706H245.191C245.377 60.0958 245.801 60.5019 246.333 60.665C246.866 60.8279 247.445 60.7288 247.893 60.3976C248.341 60.066 248.605 59.5421 248.605 58.985C248.605 58.4278 248.341 57.9039 247.893 57.5724C247.445 57.2411 246.866 57.142 246.333 57.3049C245.801 57.4681 245.377 57.8741 245.191 58.3994H241.57V56.0568H243.912C244.068 56.0568 244.217 55.9951 244.327 55.8853C244.436 55.7755 244.498 55.6264 244.498 55.4711V53.0208C245.023 52.8352 245.429 52.4114 245.593 51.8788C245.755 51.346 245.656 50.7676 245.325 50.3195C244.994 49.8717 244.47 49.6076 243.913 49.6076C243.355 49.6076 242.831 49.8717 242.5 50.3195C242.169 50.7677 242.07 51.346 242.232 51.8788C242.396 52.4114 242.802 52.8352 243.327 53.0208V54.8855H241.57V53.7142H239.813V50.6782C240.219 50.5339 240.557 50.245 240.764 49.8669C240.97 49.4889 241.03 49.0481 240.933 48.6284C240.835 48.2088 240.586 47.8399 240.234 47.5918C239.882 47.344 239.451 47.2341 239.023 47.2836C238.595 47.3332 238.2 47.5385 237.914 47.8603C237.628 48.1822 237.47 48.5981 237.47 49.029L237.47 49.0288Z" fill="url(#paint7_linear_5081_283938)"/>
<path d="M230.987 72.5428C231.145 72.5002 231.307 72.4777 231.47 72.4758H236.299V65.4273C235.965 65.4252 235.631 65.403 235.3 65.3603L235.043 64.1375V64.1378C234.664 64.0685 234.291 63.9681 233.928 63.8374L233.089 64.7741H233.089C232.477 64.5103 231.899 64.1728 231.369 63.7688L231.758 62.5868C231.463 62.3369 231.19 62.0634 230.94 61.769L229.758 62.1572C229.354 61.6273 229.017 61.0497 228.753 60.4377L229.689 59.5984C229.559 59.2358 229.458 58.863 229.389 58.4839L228.1 58.2269V56.2294L229.389 55.9724C229.458 55.593 229.559 55.2202 229.689 54.8578L228.753 54.0186V54.0183C229.016 53.4063 229.354 52.8287 229.758 52.2988L230.94 52.687C231.19 52.3926 231.463 52.1192 231.758 51.8695L231.37 50.6874C231.9 50.2835 232.477 49.946 233.089 49.6821L233.928 50.6189C234.291 50.4882 234.664 50.3878 235.043 50.3185L235.3 49.0957V49.0959C235.631 49.0533 235.965 49.0311 236.299 49.029V43.7788C229.506 43.7788 224 48.6834 224 55.1016C224 58.117 225.217 62.2432 227.21 65.7725C228.326 67.7475 230.664 70.2442 230.987 72.5433L230.987 72.5428Z" fill="url(#paint8_linear_5081_283938)"/>
<path d="M231.613 57.2282C231.613 58.4708 232.107 59.6625 232.986 60.541C233.864 61.4198 235.056 61.9134 236.298 61.9134V52.543C235.056 52.543 233.864 53.0366 232.986 53.9153C232.107 54.7938 231.613 55.9855 231.613 57.2282Z" fill="url(#paint9_linear_5081_283938)"/>
<path d="M238 44.4737C238.378 44.5223 238.756 44.5879 239.123 44.6698L239.377 43.5259C238.975 43.4373 238.562 43.3651 238.15 43.3115L238 44.4737Z" fill="url(#paint10_linear_5081_283938)"/>
<path d="M241.75 44.2821C241.373 44.1213 240.979 43.9762 240.579 43.8491L240.225 44.9655C240.59 45.0811 240.948 45.2137 241.292 45.3595L241.75 44.2821Z" fill="url(#paint11_linear_5081_283938)"/>
<path d="M243.945 45.4671C243.603 45.2373 243.243 45.0198 242.876 44.8208L242.318 45.8514C242.653 46.0321 242.98 46.23 243.291 46.4394L243.945 45.4671Z" fill="url(#paint12_linear_5081_283938)"/>
<path d="M244.201 47.1194C244.492 47.3602 244.771 47.6159 245.036 47.8851L245.871 47.0639C245.578 46.7658 245.27 46.4832 244.947 46.2168L244.201 47.1194Z" fill="url(#paint13_linear_5081_283938)"/>
<path d="M245.785 48.7326C246.02 49.0278 246.238 49.335 246.44 49.6534L247.43 49.0278C247.206 48.6738 246.963 48.332 246.703 48.0039L245.785 48.7326Z" fill="url(#paint14_linear_5081_283938)"/>
<path d="M246.99 50.6374C247.155 50.9758 247.301 51.323 247.427 51.6772L248.53 51.2848C248.39 50.8895 248.227 50.5023 248.043 50.125L246.99 50.6374Z" fill="url(#paint15_linear_5081_283938)"/>
<path d="M247.744 52.7579C247.83 53.1239 247.895 53.4944 247.939 53.8678L249.102 53.7294C249.053 53.313 248.98 52.8996 248.885 52.4912L247.744 52.7579Z" fill="url(#paint16_linear_5081_283938)"/>
<path d="M249.132 56.2304C249.165 55.8408 249.182 55.4612 249.182 55.1015L249.181 54.9849L248.01 54.994L248.01 55.1015C248.01 55.428 247.995 55.7752 247.965 56.1321L249.132 56.2304Z" fill="url(#paint17_linear_5081_283938)"/>
<g filter="url(#filter3_dd_5081_283938)">
<path d="M85.3793 87.5471C85.454 82.0247 89.9914 77.6086 95.5137 77.6833L127.837 78.1208C133.359 78.1955 137.775 82.7329 137.7 88.2552L137.263 120.578C137.188 126.101 132.651 130.517 127.129 130.442L94.8056 130.004C89.2832 129.93 84.8671 125.392 84.9418 119.87L85.3793 87.5471Z" fill="#C6F6D5"/>
</g>
<path d="M126.189 123.551V86.5386H91.7809V123.551H126.189Z" fill="white" fill-opacity="0.24"/>
<path d="M95.9005 86.063C95.4813 86.0633 95.0794 86.23 94.7829 86.5267C94.4865 86.8234 94.3203 87.2253 94.3203 87.6447V115.583V115.583C94.3206 116.002 94.4873 116.404 94.7835 116.7C95.0796 116.997 95.4815 117.163 95.9005 117.163H110.955V101.195H110.955C110.955 100.445 111.253 99.7261 111.783 99.1959C112.314 98.6656 113.033 98.3676 113.783 98.3676H119.461V87.6447V87.645C119.461 87.2258 119.295 86.8236 118.999 86.5269C118.702 86.2305 118.3 86.0638 117.881 86.0633L95.9005 86.063ZM101.018 86.8521H112.759V87.062L112.759 87.0623C112.759 87.7363 112.491 88.3827 112.014 88.8594C111.538 89.3362 110.891 89.6039 110.217 89.6039H103.56C102.886 89.6039 102.239 89.3362 101.763 88.8594C101.286 88.3827 101.018 87.7363 101.018 87.0623L101.018 86.8521ZM103.053 94.4714H104.433V99.1168H106.077V95.8853H107.458V99.1168H108.901V100.496H98.5849V99.1168H100.03V96.8346H101.41V99.1168H103.053L103.053 94.4714ZM102.903 103.673C104.131 103.64 105.319 104.104 106.198 104.961C107.077 105.818 107.572 106.994 107.57 108.222C107.577 109.431 107.101 110.593 106.248 111.45C105.396 112.307 104.236 112.79 103.027 112.79C101.818 112.79 100.659 112.307 99.8063 111.45C98.9538 110.593 98.4782 109.431 98.4845 108.222C98.4824 107.037 98.9431 105.899 99.7688 105.049C100.594 104.199 101.719 103.706 102.903 103.673V103.673Z" fill="url(#paint18_linear_5081_283938)"/>
<path d="M103.027 105.171C102.218 105.171 101.442 105.492 100.87 106.064C100.298 106.636 99.9766 107.412 99.9766 108.222C99.9766 109.031 100.298 109.807 100.87 110.379C101.442 110.951 102.218 111.272 103.027 111.272C103.836 111.273 104.612 110.951 105.185 110.379C105.757 109.807 106.078 109.031 106.078 108.222H103.027L103.027 105.171Z" fill="url(#paint19_linear_5081_283938)"/>
<path d="M113.784 99.208C113.257 99.208 112.751 99.4173 112.379 99.7899C112.006 100.163 111.797 100.668 111.797 101.195V119.076C111.797 119.603 112.006 120.108 112.379 120.481C112.751 120.853 113.257 121.063 113.784 121.063H126.264C126.791 121.063 127.297 120.853 127.669 120.481C128.042 120.108 128.251 119.603 128.251 119.076V101.195C128.251 100.668 128.042 100.162 127.669 99.7899C127.297 99.4174 126.791 99.208 126.264 99.208H113.784ZM114.472 101.546H125.54C125.692 101.546 125.838 101.607 125.946 101.714C126.053 101.822 126.113 101.967 126.113 102.12V105.725C126.113 105.878 126.053 106.024 125.946 106.131C125.838 106.238 125.692 106.299 125.54 106.299H114.472C114.32 106.299 114.174 106.238 114.067 106.131C113.959 106.024 113.899 105.878 113.899 105.725V102.12C113.899 101.967 113.959 101.822 114.067 101.714C114.174 101.607 114.32 101.546 114.472 101.546V101.546ZM114.502 108.485H115.66C115.923 108.485 116.176 108.589 116.362 108.775C116.549 108.961 116.654 109.214 116.654 109.478V109.876C116.654 110.139 116.55 110.392 116.363 110.579C116.177 110.765 115.923 110.87 115.66 110.87H114.502C114.239 110.87 113.986 110.765 113.8 110.578C113.614 110.392 113.509 110.139 113.509 109.875V109.478C113.509 109.214 113.614 108.962 113.8 108.776C113.986 108.59 114.239 108.485 114.502 108.485L114.502 108.485ZM119.455 108.485H120.613C120.876 108.485 121.129 108.589 121.315 108.776C121.502 108.962 121.607 109.214 121.607 109.478V109.876C121.607 110.139 121.502 110.392 121.316 110.579C121.129 110.765 120.876 110.87 120.613 110.87H119.455C119.192 110.869 118.939 110.765 118.753 110.578C118.567 110.392 118.462 110.139 118.462 109.875V109.478C118.462 109.214 118.567 108.962 118.753 108.776C118.939 108.59 119.192 108.485 119.455 108.485L119.455 108.485ZM124.408 108.485H125.566C125.829 108.485 126.081 108.59 126.267 108.776C126.454 108.962 126.558 109.214 126.558 109.478V109.875C126.559 110.139 126.454 110.392 126.268 110.578C126.082 110.765 125.829 110.869 125.566 110.87H124.408C124.144 110.87 123.891 110.765 123.705 110.579C123.518 110.392 123.413 110.139 123.414 109.876V109.478C123.414 109.214 123.519 108.961 123.705 108.775C123.892 108.589 124.145 108.485 124.408 108.485L124.408 108.485ZM114.502 112.538H115.659C115.923 112.538 116.176 112.643 116.363 112.829C116.549 113.016 116.654 113.269 116.654 113.532V113.93C116.653 114.194 116.549 114.447 116.362 114.633C116.176 114.819 115.923 114.923 115.659 114.923H114.502C114.239 114.923 113.986 114.818 113.8 114.632C113.614 114.446 113.509 114.194 113.509 113.93V113.532C113.509 113.269 113.613 113.016 113.799 112.83C113.986 112.643 114.238 112.538 114.502 112.538L114.502 112.538ZM119.455 112.538H120.612C120.876 112.538 121.129 112.643 121.316 112.829C121.502 113.016 121.607 113.269 121.606 113.532V113.93C121.606 114.194 121.502 114.447 121.315 114.633C121.129 114.819 120.876 114.923 120.612 114.923H119.455C119.192 114.923 118.939 114.818 118.753 114.632C118.567 114.446 118.462 114.194 118.462 113.93V113.532C118.462 113.269 118.566 113.016 118.752 112.83C118.939 112.643 119.191 112.539 119.455 112.538L119.455 112.538ZM124.408 112.538H125.565C125.829 112.539 126.081 112.643 126.268 112.83C126.454 113.016 126.559 113.269 126.558 113.533V117.984C126.558 118.247 126.453 118.499 126.267 118.686C126.081 118.872 125.829 118.976 125.565 118.976H124.408C124.144 118.977 123.891 118.872 123.705 118.686C123.519 118.5 123.414 118.247 123.413 117.984V113.533C123.413 113.269 123.518 113.016 123.704 112.829C123.891 112.643 124.144 112.538 124.408 112.538L124.408 112.538ZM114.502 116.593H115.659C115.922 116.593 116.175 116.697 116.362 116.884C116.548 117.07 116.653 117.322 116.653 117.586V117.984C116.653 118.247 116.549 118.5 116.362 118.686C116.175 118.872 115.922 118.977 115.659 118.977H114.502C114.238 118.976 113.986 118.872 113.8 118.686C113.614 118.499 113.509 118.247 113.509 117.984V117.586C113.509 117.323 113.614 117.07 113.8 116.884C113.986 116.698 114.238 116.594 114.502 116.593V116.593ZM119.455 116.593H120.612C120.875 116.593 121.128 116.698 121.315 116.884C121.501 117.07 121.606 117.322 121.606 117.586V117.984C121.606 118.247 121.501 118.5 121.315 118.686C121.128 118.872 120.875 118.977 120.612 118.976H119.455C119.191 118.976 118.939 118.872 118.753 118.686C118.567 118.499 118.462 118.247 118.462 117.984V117.586C118.462 117.323 118.567 117.071 118.753 116.884C118.939 116.698 119.191 116.594 119.455 116.593V116.593Z" fill="url(#paint20_linear_5081_283938)"/>
<g filter="url(#filter4_dd_5081_283938)">
<path d="M40.5188 190.523C39.0403 186.451 40.3522 181.89 43.7682 179.225L59.2704 167.133C62.6864 164.469 67.4296 164.307 71.0193 166.733L87.3095 177.74C90.8992 180.165 92.5188 184.626 91.3213 188.79L85.887 207.684C84.6895 211.847 80.9473 214.766 76.6175 214.914L56.9687 215.584C52.639 215.732 48.7065 213.075 47.2281 209.003L40.5188 190.523Z" fill="#FAF089"/>
</g>
<path d="M75.908 187.038V181.794C75.908 181.053 75.3163 180.461 74.5767 180.461C73.837 180.461 73.2453 181.053 73.2453 181.794V184.609L67.2098 179.098C66.7069 178.624 65.9081 178.624 65.4347 179.098L53.4229 190.031C52.8904 190.535 52.8608 191.364 53.3341 191.927C53.8371 192.461 54.6655 192.49 55.2276 192.016L66.3223 181.883L77.4169 191.987C77.6832 192.224 77.979 192.313 78.3045 192.313C78.6595 192.313 79.0441 192.194 79.3104 191.868C79.8134 191.335 79.7838 190.476 79.2216 189.972L75.908 187.038Z" fill="url(#paint21_linear_5081_283938)"/>
<path d="M56.5586 192.816V205.409H76.2331V192.816L66.3219 184.016L56.5586 192.816ZM65.4343 202.446H61.2036V198.179H65.4343V202.446ZM65.4343 196.935H61.2036V192.638H65.4343V196.935ZM67.1799 192.638H71.4106V196.875H67.1799V192.638ZM67.1799 198.179H71.4106V202.416H67.1799V198.179Z" fill="url(#paint22_linear_5081_283938)"/>
<g filter="url(#filter5_dd_5081_283938)">
<path fill-rule="evenodd" clip-rule="evenodd" d="M65.3354 255.591C72.8279 255.053 78.143 261.372 84.0319 266.031C92.3084 272.579 105.928 276.723 105.36 287.256C104.785 297.928 91.3487 301.764 81.8414 306.661C73.1956 311.115 63.1279 318.433 54.9006 313.25C46.9377 308.233 51.7327 296.12 50.343 286.817C49.3928 280.456 45.4467 274.399 48.2309 268.6C51.4917 261.809 57.8166 256.13 65.3354 255.591Z" fill="#F59E0B"/>
</g>
<path fill-rule="evenodd" clip-rule="evenodd" d="M78.6725 289.028C82.1039 287.462 85.3681 285.541 88.8273 284.034C89.945 284.752 90.5835 287.518 89.9137 288.974C86.4447 290.486 82.9117 291.352 79.4332 292.768C79.4354 291.981 79.3233 290.598 78.6724 289.028H78.6725ZM65.1435 286.639C72.3765 289.934 72.4573 289.914 80.1294 286.488C80.098 284.27 80.0442 280.492 80.013 278.275C72.7652 282.965 72.6006 282.973 65.0294 278.593L65.144 286.639L65.1435 286.639ZM61.8372 282.236C62.4597 282.512 62.4727 283.416 61.8586 283.716L62.591 290.463C62.0361 290.135 61.3294 290.07 60.6566 290.502L61.2677 283.756C60.5539 283.52 60.539 282.484 61.246 282.22C61.2048 279.316 61.2013 277.332 61.2227 276.066L59.1523 275.208L72.5893 268.816L85.7867 274.424L72.6575 280.81L61.5997 276.223C61.7092 277.804 61.8073 280.096 61.8374 282.237L61.8372 282.236ZM77.9148 292.845C77.6175 293.071 77.6777 293.35 78.0152 293.3L78.1461 295.524C78.4052 295.297 78.7618 295.115 79.1382 295.092L78.3203 293.177C78.6681 292.941 78.5975 292.621 78.216 292.704C78.1026 292.19 78.0145 291.814 77.9462 291.547C78.0786 291.577 78.2206 291.565 78.3607 291.506C78.4874 291.931 78.708 292.588 79.0558 293.556C78.5459 294.053 78.7187 294.534 79.3116 294.269L79.8862 297.772C80.3435 297.214 80.9042 296.872 81.3875 296.735L79.7663 293.938C80.1981 293.472 80.0469 293.054 79.5189 293.252C79.5163 293.244 78.9722 292.065 78.5894 291.362C78.9172 291.08 79.0863 290.548 78.9764 290.051C78.8459 289.455 78.3616 289.135 77.8955 289.338C77.4291 289.542 77.1577 290.19 77.2889 290.787C77.3599 291.111 77.5351 291.354 77.755 291.475C77.8013 292.019 77.9138 292.84 77.915 292.844L77.9148 292.845ZM77.6511 293.551C74.2566 295.155 70.9725 297.313 67.5734 298.793C66.6481 299.196 65.5302 294.11 66.4549 293.707C69.8815 292.215 73.4313 291.21 76.8879 289.8C77.2066 290.562 77.6037 291.84 77.6514 293.551H77.6511ZM66.5063 293.941C66.125 294.107 67.1411 298.726 67.5223 298.56C67.904 298.395 66.8875 293.775 66.5063 293.941V293.941Z" fill="url(#paint23_linear_5081_283938)"/>
<path fill-rule="evenodd" clip-rule="evenodd" d="M408.315 261.758C419.62 262.105 428.264 270.645 431.871 281.285C435.617 292.335 434.974 305.459 425.439 312.271C416 319.015 403.581 314.984 394.14 308.242C384.522 301.375 376.367 290.94 379.799 279.685C383.402 267.869 395.881 261.376 408.315 261.758Z" fill="url(#paint24_linear_5081_283938)"/>
<path d="M421.802 284.255C421.508 283.279 421.116 282.336 420.635 281.438L421.36 279.06L416.671 274.363L414.296 275.089C413.399 274.607 412.457 274.215 411.482 273.92L410.314 271.742H403.678L402.514 273.92C401.54 274.214 400.597 274.606 399.7 275.089L397.325 274.363L392.633 279.06L393.358 281.438C392.879 282.337 392.489 283.28 392.194 284.255L390 285.424V292.067L392.194 293.232C392.488 294.207 392.878 295.151 393.358 296.049L392.633 298.427L397.325 303.124L399.7 302.398C400.598 302.878 401.54 303.269 402.514 303.564L403.678 305.742H410.314L411.482 303.564C412.456 303.268 413.398 302.878 414.296 302.398L416.671 303.124L421.364 298.427L420.638 296.049C421.121 295.152 421.512 294.208 421.806 293.232L424 292.067V285.424L421.802 284.255ZM406.996 298.18C405.132 298.18 403.309 297.627 401.758 296.589C400.208 295.552 398.999 294.078 398.286 292.354C397.572 290.629 397.385 288.731 397.749 286.9C398.113 285.069 399.011 283.388 400.33 282.068C401.648 280.748 403.328 279.849 405.157 279.485C406.986 279.12 408.882 279.307 410.604 280.022C412.327 280.736 413.8 281.946 414.836 283.498C415.872 285.05 416.425 286.875 416.425 288.742C416.425 291.245 415.431 293.646 413.663 295.416C411.895 297.186 409.497 298.18 406.996 298.18Z" fill="#EEEEEE"/>
<path d="M191.98 309.615H162.744V309.836H191.98V309.615Z" fill="#EEEEEE"/>
<path d="M275.177 307.223H267.506V307.444H275.177V307.223Z" fill="#EEEEEE"/>
<path d="M109.939 303.498H93V303.719H109.939V303.498Z" fill="#EEEEEE"/>
<path d="M413.711 302.015H390.689V302.236H413.711V302.015Z" fill="#EEEEEE"/>
<path d="M382.824 302.015H362.133V302.236H382.824V302.015Z" fill="#EEEEEE"/>
<path d="M443.838 312.608H361.145V312.829H443.838V312.608Z" fill="#EEEEEE"/>
<path d="M327.929 293.373H348.717V202.417H327.929V293.373Z" fill="#EEEEEE"/>
<path d="M253.205 296.004H344.734V293.373H253.205V296.004Z" fill="#EEEEEE"/>
<path d="M327.928 202.417H249.207V293.373H327.928V202.417Z" fill="#F5F5F5"/>
<path d="M319.754 207.52H257.381V245.865H319.754V207.52Z" fill="#EEEEEE"/>
<path d="M319.754 249.926H257.381V288.271H319.754V249.926Z" fill="#EEEEEE"/>
<path d="M304.739 214.202H272.404C271.393 214.203 270.392 214.004 269.458 213.617C268.524 213.23 267.676 212.662 266.962 211.946C266.248 211.23 265.683 210.379 265.299 209.444C264.915 208.509 264.72 207.507 264.725 206.496H312.392C312.396 207.504 312.202 208.504 311.82 209.438C311.437 210.371 310.875 211.22 310.164 211.936C309.453 212.652 308.608 213.221 307.677 213.609C306.746 213.998 305.747 214.199 304.739 214.202Z" fill="#F5F5F5"/>
<path d="M304.739 256.608H272.405C270.371 256.608 268.42 255.8 266.981 254.361C265.543 252.923 264.734 250.971 264.734 248.937H312.401C312.401 250.97 311.595 252.92 310.158 254.358C308.721 255.796 306.772 256.606 304.739 256.608Z" fill="#F5F5F5"/>
<path d="M363.005 214.202H330.671C328.636 214.202 326.685 213.393 325.247 211.955C323.808 210.516 323 208.565 323 206.531H370.667C370.667 208.564 369.86 210.513 368.423 211.952C366.987 213.39 365.038 214.199 363.005 214.202Z" fill="#F5F5F5"/>
<path d="M353.005 256.608H320.671C318.636 256.608 316.685 255.8 315.247 254.361C313.808 252.923 313 250.971 313 248.937H360.667C360.667 250.97 359.86 252.92 358.423 254.358C356.987 255.796 355.038 256.606 353.005 256.608Z" fill="#F5F5F5"/>
<path d="M126.154 295.995H147.119V229.897H126.154V295.995Z" fill="#EDF2F7"/>
<path d="M130.135 296.004H126.154V284.679H134.311L130.135 296.004Z" fill="#EEEEEE"/>
<path d="M204.496 295.995H225.461V229.897H204.496V295.995Z" fill="#EDF2F7"/>
<path d="M126.164 289.048H207.975V229.897H126.164L126.164 289.048Z" fill="#EEEEEE"/>
<path d="M129.244 233.613V274.898H165.727V233.613H129.244Z" fill="#EDF2F7"/>
<path d="M168.402 233.613V274.898H204.885V233.613H168.402Z" fill="#EDF2F7"/>
<path d="M183.038 236.782H190.25C191.799 236.787 193.332 236.476 194.757 235.869C196.182 235.262 197.469 234.371 198.539 233.251H174.705C175.779 234.377 177.073 235.272 178.506 235.879C179.939 236.486 181.482 236.794 183.038 236.782Z" fill="#EEEEEE"/>
<path d="M143.51 236.782H150.73C152.279 236.786 153.813 236.475 155.238 235.868C156.662 235.261 157.949 234.371 159.019 233.251H135.186C136.259 234.375 137.552 235.269 138.983 235.876C140.414 236.483 141.955 236.791 143.51 236.782Z" fill="#EEEEEE"/>
<path d="M203.994 296.004H207.975V284.679H199.818L203.994 296.004Z" fill="#EEEEEE"/>
<path d="M182.41 221.043C182.408 221.943 182.674 222.822 183.172 223.571C183.67 224.32 184.38 224.904 185.21 225.249C186.041 225.595 186.955 225.686 187.838 225.512C188.72 225.337 189.531 224.905 190.168 224.27C190.804 223.634 191.238 222.824 191.414 221.942C191.59 221.06 191.501 220.145 191.157 219.314C190.813 218.483 190.231 217.773 189.483 217.273C188.735 216.773 187.856 216.506 186.956 216.506C185.753 216.508 184.599 216.987 183.747 217.837C182.896 218.687 182.415 219.84 182.41 221.043Z" fill="#E0E0E0"/>
<path d="M189.014 222.632C191.52 222.632 193.551 220.601 193.551 218.095C193.551 215.589 191.52 213.558 189.014 213.558C186.508 213.558 184.477 215.589 184.477 218.095C184.477 220.601 186.508 222.632 189.014 222.632Z" fill="url(#paint25_linear_5081_283938)"/>
<path d="M159.682 221.775C159.682 222.673 159.948 223.55 160.446 224.296C160.945 225.042 161.653 225.624 162.483 225.967C163.312 226.311 164.224 226.401 165.104 226.225C165.984 226.05 166.793 225.618 167.427 224.984C168.062 224.349 168.494 223.541 168.669 222.661C168.844 221.781 168.754 220.868 168.411 220.039C168.067 219.21 167.486 218.501 166.74 218.003C165.993 217.504 165.116 217.238 164.219 217.238C163.016 217.238 161.861 217.716 161.011 218.567C160.16 219.418 159.682 220.572 159.682 221.775Z" fill="#E0E0E0"/>
<path d="M195.088 224.406C198.164 224.406 200.658 221.912 200.658 218.836C200.658 215.76 198.164 213.266 195.088 213.266C192.011 213.266 189.518 215.76 189.518 218.836C189.518 221.912 192.011 224.406 195.088 224.406Z" fill="url(#paint26_linear_5081_283938)"/>
<path d="M178.482 213.708C178.481 214.81 178.806 215.887 179.417 216.805C180.028 217.722 180.897 218.437 181.915 218.86C182.932 219.283 184.053 219.394 185.134 219.181C186.215 218.967 187.208 218.437 187.988 217.658C188.768 216.88 189.299 215.887 189.515 214.806C189.73 213.726 189.621 212.605 189.199 211.587C188.778 210.569 188.064 209.698 187.148 209.086C186.232 208.473 185.154 208.146 184.052 208.146C182.577 208.149 181.163 208.735 180.12 209.777C179.076 210.82 178.487 212.233 178.482 213.708Z" fill="url(#paint27_linear_5081_283938)"/>
<path d="M169.656 215.129C169.655 216.231 169.98 217.308 170.591 218.225C171.202 219.143 172.071 219.858 173.089 220.281C174.106 220.704 175.226 220.815 176.307 220.601C177.389 220.387 178.382 219.858 179.162 219.079C179.942 218.3 180.473 217.308 180.689 216.227C180.904 215.147 180.794 214.026 180.373 213.008C179.952 211.99 179.238 211.119 178.322 210.507C177.406 209.894 176.328 209.567 175.226 209.567C173.751 209.567 172.335 210.153 171.291 211.196C170.246 212.238 169.659 213.653 169.656 215.129Z" fill="url(#paint28_linear_5081_283938)"/>
<path d="M173.391 219.622C173.391 220.669 173.701 221.693 174.283 222.564C174.865 223.435 175.692 224.114 176.66 224.515C177.628 224.916 178.693 225.02 179.72 224.816C180.748 224.612 181.691 224.107 182.432 223.367C183.173 222.626 183.677 221.682 183.882 220.655C184.086 219.627 183.981 218.563 183.58 217.595C183.179 216.627 182.5 215.8 181.629 215.218C180.758 214.636 179.734 214.325 178.687 214.325C177.282 214.325 175.935 214.883 174.942 215.876C173.949 216.87 173.391 218.217 173.391 219.622Z" fill="url(#paint29_linear_5081_283938)"/>
<path d="M164.174 219.278C164.174 220.409 164.509 221.515 165.138 222.456C165.766 223.396 166.66 224.129 167.705 224.562C168.75 224.995 169.9 225.109 171.01 224.888C172.119 224.667 173.139 224.122 173.939 223.322C174.739 222.522 175.283 221.503 175.504 220.394C175.725 219.284 175.611 218.134 175.179 217.089C174.746 216.043 174.012 215.15 173.072 214.522C172.131 213.893 171.025 213.558 169.894 213.558C168.377 213.558 166.922 214.16 165.849 215.233C164.776 216.306 164.174 217.761 164.174 219.278Z" fill="url(#paint30_linear_5081_283938)"/>
<path d="M203.967 221.043C203.967 221.043 203.349 229.87 179.454 229.87C155.558 229.87 154.932 221.043 154.932 221.043H203.967Z" fill="#EEEEEE"/>
<path d="M248.5 345C385.743 345 497 338.508 497 330.5C497 322.492 385.743 316 248.5 316C111.257 316 0 322.492 0 330.5C0 338.508 111.257 345 248.5 345Z" fill="black" fill-opacity="0.08"/>
<path d="M322.273 211.359H117.887V214.634H322.273V211.359Z" fill="#263238"/>
<path d="M322.273 214.634H366.621V211.359H322.273V214.634Z" fill="#263238"/>
<path opacity="0.2" d="M322.273 214.634H366.621V211.359H322.273V214.634Z" fill="black"/>
<path d="M351.809 218.139H132.7L125.373 214.634H359.136L351.809 218.139Z" fill="#263238"/>
<path d="M351.809 218.139H132.7L125.373 214.634H359.136L351.809 218.139Z" fill="url(#paint31_linear_5081_283938)"/>
<path d="M139.318 218.139V322.6H142.125L145.656 218.139H139.318Z" fill="#263238"/>
<path d="M172.457 218.139V322.6H175.264L178.795 218.139H172.457Z" fill="#263238"/>
<path d="M351.809 218.139V322.6H349.01L345.471 218.139H351.809Z" fill="#263238"/>
<path d="M318.68 218.139V322.6H315.873L312.342 218.139H318.68Z" fill="#263238"/>
<path d="M251.98 171.708L242.756 209.285L242.5 211.359H306.127L306.392 209.285L315.607 171.708H251.98Z" fill="#263238"/>
<path opacity="0.3" d="M251.98 171.708L242.756 209.285L242.5 211.359H306.127L306.392 209.285L315.607 171.708H251.98Z" fill="black"/>
<path d="M313.658 171.708H250.022L240.807 209.285H304.433L313.658 171.708Z" fill="#263238"/>
<path d="M303.083 207.564L311.469 173.429H251.373L242.996 207.564H303.083Z" fill="white" fill-opacity="0.24"/>
<path d="M287.856 209.285L287.591 211.36H217.529L217.785 209.285H287.856Z" fill="#263238"/>
<path opacity="0.6" d="M287.856 209.285L287.591 211.36H217.529L217.785 209.285H287.856Z" fill="white" fill-opacity="0.24"/>
<path d="M155.5 204.527C155.456 203.182 154.93 201.899 154.017 200.91C153.105 199.922 151.867 199.294 150.531 199.142V198.127C150.529 198.068 150.517 198.011 150.493 197.957C150.469 197.903 150.435 197.855 150.392 197.814C150.349 197.774 150.299 197.743 150.244 197.722C150.189 197.702 150.13 197.692 150.072 197.695H140.538C140.479 197.692 140.42 197.702 140.364 197.722C140.309 197.743 140.258 197.774 140.215 197.814C140.171 197.854 140.136 197.902 140.111 197.956C140.086 198.01 140.073 198.068 140.07 198.127V211.368H150.531V209.92C151.869 209.77 153.109 209.142 154.022 208.151C154.935 207.16 155.46 205.874 155.5 204.527ZM150.531 208.208V200.855C151.413 200.985 152.219 201.428 152.802 202.103C153.384 202.778 153.705 203.64 153.705 204.531C153.705 205.423 153.384 206.285 152.802 206.96C152.219 207.635 151.413 208.078 150.531 208.208Z" fill="#263238"/>
<path d="M333.916 211.359H342.779L340.157 191.948H333.916V211.359Z" fill="#263238"/>
<path d="M320.922 211.36H337.711L340.827 188.638H324.047L320.922 211.36Z" fill="#263238"/>
<path opacity="0.3" d="M320.922 211.36H337.711L340.827 188.638H324.047L320.922 211.36Z" fill="black"/>
<path d="M318.68 211.36H336.149L339.274 188.638H321.805L318.68 211.36Z" fill="#263238"/>
<path opacity="0.4" d="M334.604 209.568L337.235 190.43H323.349L320.719 209.568H334.604Z" fill="white" fill-opacity="0.24"/>
<path d="M202.373 177.816L201.65 178.593L200.873 179.476C200.352 180.076 199.831 180.685 199.337 181.312C198.348 182.565 197.395 183.845 196.503 185.161C194.729 187.704 193.249 190.44 192.09 193.317C191.55 194.684 191.13 196.096 190.836 197.536C190.695 198.348 190.607 198.702 190.563 199.046C190.514 199.32 190.514 199.601 190.563 199.876C190.711 200.307 190.943 200.705 191.246 201.046C191.549 201.387 191.917 201.664 192.328 201.862C192.924 202.229 193.55 202.545 194.199 202.806C194.541 202.947 194.894 203.08 195.259 203.203C195.594 203.327 196.018 203.451 196.283 203.557V208.42C195.665 208.509 195.215 208.579 194.694 208.614C194.173 208.65 193.67 208.659 193.149 208.614C192.078 208.593 191.013 208.457 189.971 208.208C188.797 207.933 187.672 207.48 186.634 206.867C185.414 206.153 184.365 205.179 183.563 204.016C182.736 202.777 182.188 201.373 181.956 199.902C181.897 199.557 181.859 199.21 181.841 198.86C181.824 198.525 181.824 198.189 181.841 197.854V197.36C181.831 197.228 181.831 197.095 181.841 196.963L181.912 196.186C182.138 194.168 182.563 192.178 183.183 190.245C184.378 186.532 186.061 182.993 188.188 179.723C189.21 178.117 190.321 176.57 191.516 175.089C192.107 174.347 192.716 173.623 193.352 172.908C193.661 172.546 193.988 172.193 194.323 171.84C194.658 171.487 194.967 171.178 195.426 170.737L202.373 177.816Z" fill="#B55B52"/>
<path d="M194.525 203.451L198.639 200.432L200.978 208.888C200.978 208.888 197.332 210.239 194.552 208.42L194.525 203.451Z" fill="#B55B52"/>
<path d="M204.35 198.401L205.956 205.481L200.978 208.888L198.639 200.432L204.35 198.401Z" fill="#B55B52"/>
<path d="M230.365 145.367C230.18 145.888 230.312 146.408 230.656 146.523C231.001 146.638 231.424 146.32 231.601 145.799C231.778 145.279 231.654 144.749 231.319 144.634C230.983 144.519 230.551 144.837 230.365 145.367Z" fill="#263238"/>
<path d="M230.268 146.391C230.337 148.209 230.655 150.009 231.213 151.74C230.768 151.868 230.301 151.898 229.844 151.827C229.387 151.757 228.95 151.589 228.564 151.334L230.268 146.391Z" fill="#A02724"/>
<path d="M229.517 141.818C229.583 141.841 229.655 141.841 229.721 141.818C230.108 141.689 230.52 141.654 230.924 141.715C231.327 141.777 231.711 141.933 232.042 142.171C232.108 142.22 232.191 142.241 232.272 142.231C232.354 142.222 232.428 142.182 232.482 142.12C232.535 142.057 232.563 141.977 232.56 141.895C232.557 141.813 232.524 141.735 232.466 141.677C232.051 141.368 231.569 141.163 231.059 141.079C230.55 140.994 230.027 141.033 229.535 141.192C229.471 141.214 229.415 141.255 229.375 141.311C229.336 141.366 229.314 141.433 229.314 141.501C229.314 141.569 229.336 141.635 229.375 141.69C229.415 141.746 229.471 141.787 229.535 141.81L229.517 141.818Z" fill="#263238"/>
<path d="M211.006 147.292C211.994 152.314 212.974 161.521 209.461 164.875C209.461 164.875 210.838 169.969 220.177 169.969C230.443 169.969 225.085 164.875 225.085 164.875C219.48 163.534 219.621 159.376 220.601 155.474L211.006 147.292Z" fill="#B55B52"/>
<path d="M208.121 166.623C207.379 165.008 206.576 163.163 208.244 162.589C210.089 161.953 220.188 161.3 223.666 162.492C224.125 162.617 224.556 162.833 224.931 163.126C225.307 163.419 225.62 163.785 225.853 164.201C226.085 164.617 226.232 165.075 226.286 165.548C226.339 166.022 226.298 166.501 226.164 166.959L208.121 166.623Z" fill="#263238"/>
<path d="M243.384 175.238C245.547 179.131 247.869 183.139 250.217 186.987C252.565 190.836 255.027 194.667 257.658 198.163C258.311 199.045 258.991 199.884 259.662 200.723C259.997 201.155 260.35 201.508 260.694 201.905L261.206 202.488L261.339 202.638L261.401 202.709L261.462 202.788C261.874 203.186 262.368 203.487 262.91 203.671C263.744 203.961 264.605 204.171 265.479 204.298C269.77 204.731 274.096 204.68 278.375 204.147L279.717 208.826C278.526 209.356 277.413 209.709 276.23 210.15C275.048 210.591 273.882 210.883 272.7 211.183C270.192 211.812 267.622 212.155 265.038 212.207C263.587 212.23 262.138 212.085 260.721 211.774C258.981 211.429 257.341 210.699 255.919 209.638L255.328 209.153L255.186 209.029L255.098 208.941L254.93 208.773L254.242 208.093C253.792 207.643 253.297 207.211 252.891 206.734C252.009 205.807 251.179 204.88 250.411 203.927C247.327 200.2 244.482 196.282 241.892 192.195C240.604 190.183 239.362 188.15 238.167 186.096C236.967 184.021 235.811 181.991 234.689 179.802L243.384 175.238Z" fill="#B55B52"/>
<path d="M197.165 166.429C190.721 167.903 183.342 185.46 183.342 185.46L196.274 194.288C199.49 189.675 202.344 184.82 204.81 179.767C208.632 171.769 203.75 164.919 197.165 166.429Z" fill="#263238"/>
<path opacity="0.2" d="M201.773 177.622L195.664 193.899L196.264 194.323C196.264 194.323 198.912 190.606 201.773 185.593V177.622Z" fill="black"/>
<path d="M235.653 166.773C235.653 166.773 242.962 175.035 236.059 226.145H199.311C199.064 220.504 202.604 192.999 197.166 166.42C201.227 165.638 205.334 165.119 209.462 164.866C214.666 164.562 219.883 164.562 225.087 164.866C228.653 165.225 232.186 165.863 235.653 166.773Z" fill="#263238"/>
<path opacity="0.2" d="M231.564 181.559C232.523 187.36 235.03 192.794 238.82 197.289C238.971 193.996 239.032 191.039 239.023 188.4L231.564 181.559Z" fill="black"/>
<path d="M228.378 172.352C227.495 178.858 240.294 195.471 240.294 195.471L253.173 186.643C253.173 186.643 249.598 177.49 243.587 171.487C236.737 164.602 229.384 165.273 228.378 172.352Z" fill="#263238"/>
<path d="M276.928 204.192L282.171 202.038L287.565 206.116C287.565 206.116 282.418 210.671 277.74 208.897L276.928 204.192Z" fill="#B55B52"/>
<path d="M285.631 201.826L289.586 204.651L287.538 206.116L282.145 202.038L285.631 201.826Z" fill="#B55B52"/>
<path d="M213.293 138.182C211.457 144.749 210.044 148.501 212.145 152.923C215.296 159.588 224.256 159.402 228.034 153.523C231.424 148.227 233.86 138.376 228.458 133.636C227.272 132.582 225.836 131.849 224.287 131.507C222.738 131.164 221.127 131.224 219.607 131.679C218.088 132.135 216.71 132.971 215.605 134.11C214.499 135.248 213.704 136.649 213.293 138.182Z" fill="#B55B52"/>
<path d="M227.275 138.252C224.626 145.791 221.51 154.071 213.901 152.5C208.993 151.484 208.605 143.584 206.839 139.991C205.277 136.84 205.374 130.502 208.605 130.423C207.157 128.322 214.475 120.633 219.471 124.694C220.751 122.928 229.976 117.729 236.808 125.983C243.243 133.786 240.092 140.291 227.275 138.252Z" fill="#263238"/>
<path d="M221.316 143.072C221.139 144.756 221.517 146.451 222.393 147.9C223.567 149.789 225.288 149.066 225.924 147.132C226.489 145.367 226.55 142.322 224.917 141.095C223.284 139.868 221.563 141.042 221.316 143.072Z" fill="#B55B52"/>
<path d="M277.706 317.613C278.588 317.613 279.471 317.489 279.727 317.092C279.8 316.987 279.839 316.862 279.839 316.735C279.839 316.607 279.8 316.482 279.727 316.377C279.61 316.191 279.427 316.056 279.215 315.998C278.068 315.689 275.684 317.057 275.57 317.119C275.539 317.134 275.515 317.158 275.501 317.189C275.486 317.219 275.483 317.253 275.49 317.286C275.496 317.318 275.511 317.347 275.532 317.371C275.554 317.394 275.583 317.411 275.614 317.419C276.304 317.544 277.004 317.609 277.706 317.613ZM278.8 316.28C278.903 316.265 279.007 316.265 279.109 316.28C279.176 316.292 279.239 316.319 279.294 316.359C279.349 316.399 279.394 316.45 279.427 316.51C279.542 316.713 279.506 316.81 279.427 316.863C279.109 317.313 277.37 317.322 276.09 317.136C276.93 316.678 277.85 316.387 278.8 316.28Z" fill="#263238"/>
<path d="M275.631 317.419H275.701C276.531 317.048 278.173 315.565 278.04 314.771C278.04 314.585 277.882 314.365 277.44 314.312C277.282 314.298 277.122 314.316 276.97 314.364C276.819 314.413 276.679 314.491 276.557 314.594C275.675 315.309 275.498 317.163 275.489 317.242C275.486 317.27 275.49 317.299 275.501 317.325C275.512 317.351 275.529 317.375 275.551 317.392C275.576 317.407 275.603 317.416 275.631 317.419ZM277.308 314.638H277.405C277.696 314.638 277.714 314.788 277.723 314.824C277.802 315.291 276.681 316.457 275.834 316.96C275.904 316.183 276.212 315.446 276.716 314.85C276.881 314.709 277.091 314.634 277.308 314.638Z" fill="#263238"/>
<path d="M267.643 317.26H274.51L276.073 301.345H269.205L267.643 317.26Z" fill="#B55B52"/>
<path d="M274.898 316.465H267.403C267.265 316.466 267.132 316.514 267.024 316.6C266.917 316.687 266.842 316.807 266.812 316.942L265.453 323.015C265.418 323.163 265.417 323.317 265.45 323.465C265.484 323.614 265.551 323.752 265.647 323.871C265.742 323.989 265.863 324.084 266.001 324.148C266.139 324.213 266.289 324.245 266.441 324.242C269.142 324.198 273.053 324.039 276.451 324.039C280.432 324.039 283.866 324.251 288.527 324.251C291.352 324.251 292.137 321.4 290.954 321.144C285.579 319.97 281.192 319.846 276.548 316.977C276.056 316.658 275.485 316.481 274.898 316.465Z" fill="#263238"/>
<path opacity="0.2" d="M276.063 301.354L275.269 309.554H268.393L269.196 301.354H276.063Z" fill="black"/>
<path d="M250.173 317.604C250.464 317.642 250.76 317.622 251.043 317.545C251.327 317.467 251.592 317.334 251.823 317.154C251.904 317.042 251.948 316.908 251.948 316.77C251.948 316.632 251.904 316.497 251.823 316.386C251.771 316.289 251.698 316.205 251.61 316.139C251.521 316.073 251.419 316.028 251.311 316.006C250.305 315.768 248.407 317.066 248.328 317.118C248.302 317.138 248.283 317.164 248.27 317.193C248.258 317.222 248.253 317.255 248.257 317.286C248.263 317.317 248.278 317.345 248.3 317.367C248.322 317.388 248.35 317.404 248.381 317.41C248.969 317.538 249.57 317.603 250.173 317.604ZM251.055 316.298C251.12 316.288 251.185 316.288 251.25 316.298C251.313 316.307 251.373 316.331 251.425 316.368C251.477 316.404 251.52 316.453 251.55 316.509C251.7 316.783 251.611 316.889 251.55 316.933C251.258 317.313 249.855 317.321 248.822 317.154C249.486 316.704 250.244 316.412 251.038 316.298H251.055Z" fill="#263238"/>
<path d="M248.426 317.419H248.496C249.211 317.03 250.588 315.53 250.438 314.771C250.415 314.649 250.351 314.539 250.256 314.46C250.161 314.381 250.041 314.338 249.917 314.338C249.794 314.323 249.669 314.334 249.55 314.371C249.432 314.407 249.322 314.468 249.229 314.55C248.434 315.203 248.267 317.198 248.258 317.269C248.257 317.298 248.264 317.328 248.278 317.354C248.292 317.38 248.312 317.402 248.337 317.419C248.366 317.428 248.397 317.428 248.426 317.419ZM249.811 314.638H249.882C250.094 314.638 250.112 314.762 250.12 314.806C250.209 315.256 249.326 316.395 248.62 316.933C248.667 316.15 248.95 315.399 249.432 314.779C249.537 314.688 249.672 314.638 249.811 314.638Z" fill="#263238"/>
<path d="M240.551 317.26H247.418L250.87 301.345H244.002L240.551 317.26Z" fill="#B55B52"/>
<path d="M247.904 316.465H240.189C240.052 316.466 239.92 316.514 239.814 316.601C239.708 316.688 239.635 316.808 239.606 316.942L238.247 323.015C238.215 323.164 238.217 323.318 238.253 323.467C238.289 323.615 238.358 323.753 238.455 323.871C238.552 323.989 238.673 324.083 238.812 324.147C238.95 324.212 239.101 324.244 239.253 324.242C241.946 324.198 243.261 324.039 246.651 324.039C248.743 324.039 251.417 324.251 254.304 324.251C257.19 324.251 257.561 321.4 256.378 321.144C251.082 319.987 250.72 318.39 249.025 316.862C248.712 316.598 248.314 316.456 247.904 316.465Z" fill="#263238"/>
<g opacity="0.2">
<path d="M244.002 301.354H250.869L249.086 309.554H242.219L244.002 301.354Z" fill="black"/>
</g>
<path d="M236.058 226.154C236.058 226.154 287.52 231.6 286.955 257.852C286.591 274.34 283.421 290.644 277.581 306.067H267.377C267.377 306.067 267.897 289.41 267.553 262.531C267.447 254.472 251.179 251.815 235.281 250.879C228.549 250.456 222.069 248.159 216.572 244.249C211.076 240.339 206.781 234.97 204.174 228.749L203.088 226.154H236.058Z" fill="#263238"/>
<path d="M280.08 303.331C280.133 303.331 279.418 308.159 279.418 308.159H265.295L264.906 303.851L280.08 303.331Z" fill="#263238"/>
<path d="M225.041 226.154C225.041 226.154 262.345 238.512 263.29 253.836C265.055 282.03 251.188 306.067 251.188 306.067H240.886C240.886 306.067 244.797 294.15 246.183 268.604C247.948 236.517 188.073 268.551 199.292 226.154H225.041Z" fill="#263238"/>
<path d="M254.304 303.331C254.357 303.331 253.006 308.159 253.006 308.159H238.883L239.139 303.851L254.304 303.331Z" fill="#263238"/>
<path opacity="0.8" d="M251.947 253.183H194.57C194.57 251.446 195.26 249.78 196.489 248.552C197.717 247.323 199.383 246.633 201.12 246.633H245.398C247.135 246.633 248.801 247.323 250.029 248.552C251.257 249.78 251.947 251.446 251.947 253.183Z" fill="url(#paint32_linear_5081_283938)"/>
<path d="M197.227 253.174L188.576 325.699H190.43L201.402 253.174H197.227Z" fill="#263238"/>
<path opacity="0.4" d="M197.227 253.174L188.576 325.699H190.43L201.402 253.174H197.227Z" fill="black"/>
<path d="M208.801 253.174L208.633 325.699H210.478L212.976 253.174H208.801Z" fill="#263238"/>
<path opacity="0.4" d="M208.801 253.174L208.633 325.699H210.478L212.976 253.174H208.801Z" fill="black"/>
<path d="M249.29 253.174L257.94 325.699H256.086L245.123 253.174H249.29Z" fill="#263238"/>
<path opacity="0.4" d="M249.29 253.174L257.94 325.699H256.086L245.123 253.174H249.29Z" fill="black"/>
<path d="M237.718 253.174L237.886 325.699H236.041L233.543 253.174H237.718Z" fill="#263238"/>
<path opacity="0.4" d="M237.718 253.174L237.886 325.699H236.041L233.543 253.174H237.718Z" fill="black"/>
<defs>
<filter id="filter0_dd_5081_283938" x="384.33" y="157.742" width="70.3398" height="69.6836" filterUnits="userSpaceOnUse" color-interpolation-filters="sRGB">
<feFlood flood-opacity="0" result="BackgroundImageFix"/>
<feColorMatrix in="SourceAlpha" type="matrix" values="0 0 0 0 0 0 0 0 0 0 0 0 0 0 0 0 0 0 127 0" result="hardAlpha"/>
<feOffset dy="1"/>
<feGaussianBlur stdDeviation="1"/>
<feColorMatrix type="matrix" values="0 0 0 0 0 0 0 0 0 0 0 0 0 0 0 0 0 0 0.06 0"/>
<feBlend mode="normal" in2="BackgroundImageFix" result="effect1_dropShadow_5081_283938"/>
<feColorMatrix in="SourceAlpha" type="matrix" values="0 0 0 0 0 0 0 0 0 0 0 0 0 0 0 0 0 0 127 0" result="hardAlpha"/>
<feOffset dy="1"/>
<feGaussianBlur stdDeviation="1.5"/>
<feColorMatrix type="matrix" values="0 0 0 0 0 0 0 0 0 0 0 0 0 0 0 0 0 0 0.1 0"/>
<feBlend mode="normal" in2="effect1_dropShadow_5081_283938" result="effect2_dropShadow_5081_283938"/>
<feBlend mode="normal" in="SourceGraphic" in2="effect2_dropShadow_5081_283938" result="shape"/>
</filter>
<filter id="filter1_dd_5081_283938" x="340.354" y="69.2886" width="62.293" height="67.9062" filterUnits="userSpaceOnUse" color-interpolation-filters="sRGB">
<feFlood flood-opacity="0" result="BackgroundImageFix"/>
<feColorMatrix in="SourceAlpha" type="matrix" values="0 0 0 0 0 0 0 0 0 0 0 0 0 0 0 0 0 0 127 0" result="hardAlpha"/>
<feOffset dy="1"/>
<feGaussianBlur stdDeviation="1"/>
<feColorMatrix type="matrix" values="0 0 0 0 0 0 0 0 0 0 0 0 0 0 0 0 0 0 0.06 0"/>
<feBlend mode="normal" in2="BackgroundImageFix" result="effect1_dropShadow_5081_283938"/>
<feColorMatrix in="SourceAlpha" type="matrix" values="0 0 0 0 0 0 0 0 0 0 0 0 0 0 0 0 0 0 127 0" result="hardAlpha"/>
<feOffset dy="1"/>
<feGaussianBlur stdDeviation="1.5"/>
<feColorMatrix type="matrix" values="0 0 0 0 0 0 0 0 0 0 0 0 0 0 0 0 0 0 0.1 0"/>
<feBlend mode="normal" in2="effect1_dropShadow_5081_283938" result="effect2_dropShadow_5081_283938"/>
<feBlend mode="normal" in="SourceGraphic" in2="effect2_dropShadow_5081_283938" result="shape"/>
</filter>
<filter id="filter2_dd_5081_283938" x="203.664" y="20.7417" width="67.6719" height="62.75" filterUnits="userSpaceOnUse" color-interpolation-filters="sRGB">
<feFlood flood-opacity="0" result="BackgroundImageFix"/>
<feColorMatrix in="SourceAlpha" type="matrix" values="0 0 0 0 0 0 0 0 0 0 0 0 0 0 0 0 0 0 127 0" result="hardAlpha"/>
<feOffset dy="1"/>
<feGaussianBlur stdDeviation="1"/>
<feColorMatrix type="matrix" values="0 0 0 0 0 0 0 0 0 0 0 0 0 0 0 0 0 0 0.06 0"/>
<feBlend mode="normal" in2="BackgroundImageFix" result="effect1_dropShadow_5081_283938"/>
<feColorMatrix in="SourceAlpha" type="matrix" values="0 0 0 0 0 0 0 0 0 0 0 0 0 0 0 0 0 0 127 0" result="hardAlpha"/>
<feOffset dy="1"/>
<feGaussianBlur stdDeviation="1.5"/>
<feColorMatrix type="matrix" values="0 0 0 0 0 0 0 0 0 0 0 0 0 0 0 0 0 0 0.1 0"/>
<feBlend mode="normal" in2="effect1_dropShadow_5081_283938" result="effect2_dropShadow_5081_283938"/>
<feBlend mode="normal" in="SourceGraphic" in2="effect2_dropShadow_5081_283938" result="shape"/>
</filter>
<filter id="filter3_dd_5081_283938" x="81.9414" y="75.6826" width="58.7598" height="58.7603" filterUnits="userSpaceOnUse" color-interpolation-filters="sRGB">
<feFlood flood-opacity="0" result="BackgroundImageFix"/>
<feColorMatrix in="SourceAlpha" type="matrix" values="0 0 0 0 0 0 0 0 0 0 0 0 0 0 0 0 0 0 127 0" result="hardAlpha"/>
<feOffset dy="1"/>
<feGaussianBlur stdDeviation="1"/>
<feColorMatrix type="matrix" values="0 0 0 0 0 0 0 0 0 0 0 0 0 0 0 0 0 0 0.06 0"/>
<feBlend mode="normal" in2="BackgroundImageFix" result="effect1_dropShadow_5081_283938"/>
<feColorMatrix in="SourceAlpha" type="matrix" values="0 0 0 0 0 0 0 0 0 0 0 0 0 0 0 0 0 0 127 0" result="hardAlpha"/>
<feOffset dy="1"/>
<feGaussianBlur stdDeviation="1.5"/>
<feColorMatrix type="matrix" values="0 0 0 0 0 0 0 0 0 0 0 0 0 0 0 0 0 0 0.1 0"/>
<feBlend mode="normal" in2="effect1_dropShadow_5081_283938" result="effect2_dropShadow_5081_283938"/>
<feBlend mode="normal" in="SourceGraphic" in2="effect2_dropShadow_5081_283938" result="shape"/>
</filter>
<filter id="filter4_dd_5081_283938" x="36.918" y="163.019" width="57.793" height="56.5718" filterUnits="userSpaceOnUse" color-interpolation-filters="sRGB">
<feFlood flood-opacity="0" result="BackgroundImageFix"/>
<feColorMatrix in="SourceAlpha" type="matrix" values="0 0 0 0 0 0 0 0 0 0 0 0 0 0 0 0 0 0 127 0" result="hardAlpha"/>
<feOffset dy="1"/>
<feGaussianBlur stdDeviation="1"/>
<feColorMatrix type="matrix" values="0 0 0 0 0 0 0 0 0 0 0 0 0 0 0 0 0 0 0.06 0"/>
<feBlend mode="normal" in2="BackgroundImageFix" result="effect1_dropShadow_5081_283938"/>
<feColorMatrix in="SourceAlpha" type="matrix" values="0 0 0 0 0 0 0 0 0 0 0 0 0 0 0 0 0 0 127 0" result="hardAlpha"/>
<feOffset dy="1"/>
<feGaussianBlur stdDeviation="1.5"/>
<feColorMatrix type="matrix" values="0 0 0 0 0 0 0 0 0 0 0 0 0 0 0 0 0 0 0.1 0"/>
<feBlend mode="normal" in2="effect1_dropShadow_5081_283938" result="effect2_dropShadow_5081_283938"/>
<feBlend mode="normal" in="SourceGraphic" in2="effect2_dropShadow_5081_283938" result="shape"/>
</filter>
<filter id="filter5_dd_5081_283938" x="44.252" y="253.559" width="64.125" height="65.4756" filterUnits="userSpaceOnUse" color-interpolation-filters="sRGB">
<feFlood flood-opacity="0" result="BackgroundImageFix"/>
<feColorMatrix in="SourceAlpha" type="matrix" values="0 0 0 0 0 0 0 0 0 0 0 0 0 0 0 0 0 0 127 0" result="hardAlpha"/>
<feOffset dy="1"/>
<feGaussianBlur stdDeviation="1"/>
<feColorMatrix type="matrix" values="0 0 0 0 0 0 0 0 0 0 0 0 0 0 0 0 0 0 0.06 0"/>
<feBlend mode="normal" in2="BackgroundImageFix" result="effect1_dropShadow_5081_283938"/>
<feColorMatrix in="SourceAlpha" type="matrix" values="0 0 0 0 0 0 0 0 0 0 0 0 0 0 0 0 0 0 127 0" result="hardAlpha"/>
<feOffset dy="1"/>
<feGaussianBlur stdDeviation="1.5"/>
<feColorMatrix type="matrix" values="0 0 0 0 0 0 0 0 0 0 0 0 0 0 0 0 0 0 0.1 0"/>
<feBlend mode="normal" in2="effect1_dropShadow_5081_283938" result="effect2_dropShadow_5081_283938"/>
<feBlend mode="normal" in="SourceGraphic" in2="effect2_dropShadow_5081_283938" result="shape"/>
</filter>
<linearGradient id="paint0_linear_5081_283938" x1="357.912" y1="192.575" x2="419.833" y2="254.497" gradientUnits="userSpaceOnUse">
<stop stop-color="#3A42E1"/>
<stop offset="1" stop-color="#620C90"/>
</linearGradient>
<linearGradient id="paint1_linear_5081_283938" x1="405" y1="195.312" x2="435" y2="195.312" gradientUnits="userSpaceOnUse">
<stop stop-color="#FF75C3"/>
<stop offset="0.25" stop-color="#FFA647"/>
<stop offset="0.75" stop-color="#FFE83F"/>
<stop offset="1" stop-color="#9F3FFF"/>
</linearGradient>
<linearGradient id="paint2_linear_5081_283938" x1="309.912" y1="102.575" x2="371.833" y2="164.497" gradientUnits="userSpaceOnUse">
<stop stop-color="#E25544"/>
<stop offset="1" stop-color="#620C90"/>
</linearGradient>
<linearGradient id="paint3_linear_5081_283938" x1="376.619" y1="89.5943" x2="376.619" y2="94.7569" gradientUnits="userSpaceOnUse">
<stop stop-color="#334D50"/>
<stop offset="1" stop-color="#CBCAA5"/>
</linearGradient>
<linearGradient id="paint4_linear_5081_283938" x1="377.175" y1="102.386" x2="377.175" y2="106.884" gradientUnits="userSpaceOnUse">
<stop stop-color="#334D50"/>
<stop offset="1" stop-color="#CBCAA5"/>
</linearGradient>
<linearGradient id="paint5_linear_5081_283938" x1="374.655" y1="107.362" x2="374.655" y2="112.466" gradientUnits="userSpaceOnUse">
<stop stop-color="#334D50"/>
<stop offset="1" stop-color="#CBCAA5"/>
</linearGradient>
<linearGradient id="paint6_linear_5081_283938" x1="359.332" y1="106.136" x2="359.332" y2="111.003" gradientUnits="userSpaceOnUse">
<stop stop-color="#334D50"/>
<stop offset="1" stop-color="#CBCAA5"/>
</linearGradient>
<linearGradient id="paint7_linear_5081_283938" x1="242.745" y1="51.1342" x2="242.745" y2="63.4932" gradientUnits="userSpaceOnUse">
<stop stop-color="#01A3E0"/>
<stop offset="0.536458" stop-color="#84B074"/>
<stop offset="1" stop-color="#FEC422"/>
</linearGradient>
<linearGradient id="paint8_linear_5081_283938" x1="230.149" y1="49.1968" x2="230.149" y2="66.5343" gradientUnits="userSpaceOnUse">
<stop stop-color="#01A3E0"/>
<stop offset="0.536458" stop-color="#84B074"/>
<stop offset="1" stop-color="#FEC422"/>
</linearGradient>
<linearGradient id="paint9_linear_5081_283938" x1="233.956" y1="54.3079" x2="233.956" y2="59.9559" gradientUnits="userSpaceOnUse">
<stop stop-color="#01A3E0"/>
<stop offset="0.536458" stop-color="#84B074"/>
<stop offset="1" stop-color="#FEC422"/>
</linearGradient>
<linearGradient id="paint10_linear_5081_283938" x1="238.688" y1="43.5674" x2="238.688" y2="44.386" gradientUnits="userSpaceOnUse">
<stop stop-color="#01A3E0"/>
<stop offset="0.536458" stop-color="#84B074"/>
<stop offset="1" stop-color="#FEC422"/>
</linearGradient>
<linearGradient id="paint11_linear_5081_283938" x1="240.987" y1="44.1336" x2="240.987" y2="45.044" gradientUnits="userSpaceOnUse">
<stop stop-color="#01A3E0"/>
<stop offset="0.536458" stop-color="#84B074"/>
<stop offset="1" stop-color="#FEC422"/>
</linearGradient>
<linearGradient id="paint12_linear_5081_283938" x1="243.132" y1="45.1257" x2="243.132" y2="46.1013" gradientUnits="userSpaceOnUse">
<stop stop-color="#01A3E0"/>
<stop offset="0.536458" stop-color="#84B074"/>
<stop offset="1" stop-color="#FEC422"/>
</linearGradient>
<linearGradient id="paint13_linear_5081_283938" x1="245.036" y1="46.531" x2="245.036" y2="47.5366" gradientUnits="userSpaceOnUse">
<stop stop-color="#01A3E0"/>
<stop offset="0.536458" stop-color="#84B074"/>
<stop offset="1" stop-color="#FEC422"/>
</linearGradient>
<linearGradient id="paint14_linear_5081_283938" x1="246.608" y1="48.3146" x2="246.608" y2="49.3088" gradientUnits="userSpaceOnUse">
<stop stop-color="#01A3E0"/>
<stop offset="0.536458" stop-color="#84B074"/>
<stop offset="1" stop-color="#FEC422"/>
</linearGradient>
<linearGradient id="paint15_linear_5081_283938" x1="247.76" y1="50.4174" x2="247.76" y2="51.353" gradientUnits="userSpaceOnUse">
<stop stop-color="#01A3E0"/>
<stop offset="0.536458" stop-color="#84B074"/>
<stop offset="1" stop-color="#FEC422"/>
</linearGradient>
<linearGradient id="paint16_linear_5081_283938" x1="248.423" y1="52.7505" x2="248.423" y2="53.5802" gradientUnits="userSpaceOnUse">
<stop stop-color="#01A3E0"/>
<stop offset="0.536458" stop-color="#84B074"/>
<stop offset="1" stop-color="#FEC422"/>
</linearGradient>
<linearGradient id="paint17_linear_5081_283938" x1="248.573" y1="55.2195" x2="248.573" y2="55.9702" gradientUnits="userSpaceOnUse">
<stop stop-color="#01A3E0"/>
<stop offset="0.536458" stop-color="#84B074"/>
<stop offset="1" stop-color="#FEC422"/>
</linearGradient>
<linearGradient id="paint18_linear_5081_283938" x1="106.891" y1="93.4493" x2="106.891" y2="109.971" gradientUnits="userSpaceOnUse">
<stop stop-color="#7F00FF"/>
<stop offset="1" stop-color="#E100FF"/>
</linearGradient>
<linearGradient id="paint19_linear_5081_283938" x1="103.027" y1="106.62" x2="103.027" y2="109.861" gradientUnits="userSpaceOnUse">
<stop stop-color="#7F00FF"/>
<stop offset="1" stop-color="#E100FF"/>
</linearGradient>
<linearGradient id="paint20_linear_5081_283938" x1="120.024" y1="104.399" x2="120.024" y2="116.009" gradientUnits="userSpaceOnUse">
<stop stop-color="#7F00FF"/>
<stop offset="1" stop-color="#E100FF"/>
</linearGradient>
<linearGradient id="paint21_linear_5081_283938" x1="66.3333" y1="182.57" x2="66.3333" y2="188.268" gradientUnits="userSpaceOnUse">
<stop stop-color="#11998E"/>
<stop offset="1" stop-color="#38EF7D"/>
</linearGradient>
<linearGradient id="paint22_linear_5081_283938" x1="66.3958" y1="190.033" x2="66.3958" y2="198.991" gradientUnits="userSpaceOnUse">
<stop stop-color="#11998E"/>
<stop offset="1" stop-color="#38EF7D"/>
</linearGradient>
<linearGradient id="paint23_linear_5081_283938" x1="74.6696" y1="277.816" x2="74.6696" y2="289.628" gradientUnits="userSpaceOnUse">
<stop stop-color="#1488CC"/>
<stop offset="1" stop-color="#2B32B2"/>
</linearGradient>
<linearGradient id="paint24_linear_5081_283938" x1="379" y1="288.742" x2="434" y2="288.742" gradientUnits="userSpaceOnUse">
<stop stop-color="#9400D3"/>
<stop offset="1" stop-color="#4B0082"/>
</linearGradient>
<linearGradient id="paint25_linear_5081_283938" x1="189.014" y1="216.45" x2="189.014" y2="220.25" gradientUnits="userSpaceOnUse">
<stop stop-color="#F7971E"/>
<stop offset="1" stop-color="#FFD200"/>
</linearGradient>
<linearGradient id="paint26_linear_5081_283938" x1="195.088" y1="216.817" x2="195.088" y2="221.482" gradientUnits="userSpaceOnUse">
<stop stop-color="#F7971E"/>
<stop offset="1" stop-color="#FFD200"/>
</linearGradient>
<linearGradient id="paint27_linear_5081_283938" x1="184.052" y1="211.697" x2="184.052" y2="216.362" gradientUnits="userSpaceOnUse">
<stop stop-color="#F7971E"/>
<stop offset="1" stop-color="#FFD200"/>
</linearGradient>
<linearGradient id="paint28_linear_5081_283938" x1="175.226" y1="213.118" x2="175.226" y2="217.783" gradientUnits="userSpaceOnUse">
<stop stop-color="#F7971E"/>
<stop offset="1" stop-color="#FFD200"/>
</linearGradient>
<linearGradient id="paint29_linear_5081_283938" x1="178.687" y1="217.702" x2="178.687" y2="222.137" gradientUnits="userSpaceOnUse">
<stop stop-color="#F7971E"/>
<stop offset="1" stop-color="#FFD200"/>
</linearGradient>
<linearGradient id="paint30_linear_5081_283938" x1="169.894" y1="217.204" x2="169.894" y2="221.995" gradientUnits="userSpaceOnUse">
<stop stop-color="#F7971E"/>
<stop offset="1" stop-color="#FFD200"/>
</linearGradient>
<linearGradient id="paint31_linear_5081_283938" x1="242.255" y1="215.751" x2="242.255" y2="217.219" gradientUnits="userSpaceOnUse">
<stop stop-color="#F7971E"/>
<stop offset="1" stop-color="#FFD200"/>
</linearGradient>
<linearGradient id="paint32_linear_5081_283938" x1="223.259" y1="248.066" x2="223.259" y2="251.709" gradientUnits="userSpaceOnUse">
<stop stop-color="#B993D6"/>
<stop offset="1" stop-color="#8CA6DB"/>
</linearGradient>
</defs>
</svg>
